Coordinates
version=1
nRows=7
nColumns=38
inDegrees=yes

Units are S.I. units (second, meters, Newtons, ...)
If the header above contains a line with 'inDegrees', this indicates whether rotational values are in degrees (yes) or radians (no).

endheader
time	pelvis_tilt	pelvis_list	pelvis_rotation	pelvis_tx	pelvis_ty	pelvis_tz	hip_flexion_r	hip_adduction_r	hip_rotation_r	knee_angle_r	ankle_angle_r	subtalar_angle_r	mtp_angle_r	hip_flexion_l	hip_adduction_l	hip_rotation_l	knee_angle_l	ankle_angle_l	subtalar_angle_l	mtp_angle_l	lumbar_extension	lumbar_bending	lumbar_rotation	arm_flex_r	arm_add_r	arm_rot_r	elbow_flex_r	pro_sup_r	wrist_flex_r	wrist_dev_r	arm_flex_l	arm_add_l	arm_rot_l	elbow_flex_l	pro_sup_l	wrist_flex_l	wrist_dev_l
      0.59200000	     -4.57682467	      8.45019755	      6.77521595	     -0.38350841	      0.97505614	      0.20513130	     -0.41742477	    -10.77010028	    -10.55015211	   -135.16161863	    -13.04438847	     -0.30666357	      0.00000000	     37.58328939	      9.16381191	    -14.17867526	    -35.65788203	      2.41880264	     19.16934936	      0.00000000	    -18.57523390	    -12.26099718	     -3.20943774	     -5.79480610	    -19.33869208	      1.68414982	     90.29098988	     60.00586988	      0.00000000	      0.00000000	    -33.60732910	    -30.83468971	      5.78190018	     83.39564389	     60.00014031	      0.00000000	      0.00000000
      0.59600000	     -4.94172613	      8.59766284	      7.90409342	     -0.34704689	      0.97294494	      0.20444834	      2.43974750	    -11.54316778	    -10.98417496	   -138.42960536	    -11.98693074	     -0.12524303	      0.00000000	     36.32059121	     10.09650331	    -12.78261363	    -37.23481027	      6.70722928	     20.45151814	      0.00000000	    -18.50819809	    -12.16445595	     -4.77011045	     -6.69600238	    -18.49475381	      2.09843098	     84.65041617	     60.00586988	      0.00000000	      0.00000000	    -29.56991860	    -31.64952241	      8.00122786	     83.84048594	     60.00014031	      0.00000000	      0.00000000
      0.60000000	     -5.00286477	      8.80290233	      8.65395873	     -0.30992238	      0.97083288	      0.20440177	      5.18971578	    -12.37775197	    -11.17089972	   -141.36861544	    -11.37947016	     -0.28241746	      0.00000000	     34.61031634	     10.82201105	    -11.94653227	    -39.06707496	     12.05832390	     20.40934856	      0.00000000	    -18.67219966	    -12.20513701	     -6.21247632	     -7.48533909	    -17.92173809	      2.91417734	     79.36067720	     60.00586988	      0.00000000	      0.00000000	    -25.78284626	    -32.18075532	      9.47880984	     84.52425671	     60.00014031	      0.00000000	      0.00000000
      0.60400000	     -5.28904299	      8.88373900	      9.93856191	     -0.27261577	      0.96889014	      0.20423683	      8.03992671	    -13.09073587	    -11.88249241	   -143.90475425	    -10.54243604	     -0.20873309	      0.00000000	     33.16883220	     11.57869389	    -10.83859505	    -40.95340214	     16.17191857	     19.86663532	      0.00000000	    -18.52640742	    -12.08703701	     -7.95668516	     -8.13594479	    -17.27617466	      4.15805026	     73.35717166	     60.00586988	      0.00000000	      0.00000000	    -21.44895255	    -33.10244538	     12.18361523	     84.75301832	     60.00014031	      0.00000000	      0.00000000
      0.60800000	     -5.35993800	      8.97945371	     11.05248888	     -0.23512558	      0.96721098	      0.20377566	     10.81500932	    -14.02355316	    -12.31396502	   -146.07947300	    -10.17510770	     -0.85502202	      0.00000000	     31.47151864	     12.30583848	     -9.63886575	    -42.59455050	     19.82403282	     18.90484915	      0.00000000	    -18.61406733	    -11.89756439	     -9.62579152	     -8.97528355	    -16.82776896	      5.37306042	     68.15128313	     60.00586988	      0.00000000	      0.00000000	    -17.18488080	    -33.55701847	     14.16711771	     85.11184009	     60.00014031	      0.00000000	      0.00000000
      0.61200000	     -5.20416109	      8.96498005	     12.24509644	     -0.19738060	      0.96595727	      0.20338345	     13.36286475	    -14.84981798	    -12.88669916	   -147.79922511	     -9.78806945	     -0.65556401	      0.00000000	     29.64548540	     12.65055181	     -8.69594927	    -44.44970286	     22.37180950	     17.53870871	      0.00000000	    -18.84718990	    -11.49867144	    -11.26831436	     -9.92650591	    -16.58080951	      6.84231610	     63.02272894	     60.00586988	      0.00000000	      0.00000000	    -12.57307322	    -34.05581950	     16.58970905	     85.34471556	     60.00014031	      0.00000000	      0.00000000
      0.61600000	     -4.83407737	      9.21225220	     13.26266930	     -0.15919051	      0.96522293	      0.20228477	     15.67618913	    -16.03971438	    -13.24582988	   -149.13641737	     -9.54409958	     -1.18288653	      0.00000000	     27.30088514	     13.15416828	     -7.63452655	    -45.70353959	     24.80357816	     17.19550388	      0.00000000	    -19.27428844	    -11.20575980	    -12.96969986	    -11.14050374	    -16.51492861	      8.17608478	     58.69551091	     60.00586988	      0.00000000	      0.00000000	     -8.20635982	    -34.09803193	     18.28849534	     85.53673401	     60.00014031	      0.00000000	      0.00000000
